<svg width="450.82255859375px" height="124.3800048828125px" xmlns="http://www.w3.org/2000/svg" viewBox="24.588720703125006 12.80999755859375 450.82255859375 124.3800048828125" style="background: rgba(0, 0, 0, 0);" preserveAspectRatio="xMidYMid"><defs><filter id="editing-raise" x="-100%" y="-100%" width="300%" height="300%"><feFlood flood-color="#ccc" result="flood-surface"></feFlood><feFlood flood-color="#777" result="flood-extrude"></feFlood><feMorphology operator="erode" in="SourceAlpha" radius="1" result="erode"></feMorphology><feConvolveMatrix in="erode" result="shadow" order="11,8" divisor="1" kernelMatrix="0 0 0 1 1 1 1 1 0 0 0 0 0 1 0 0 0 0 0 1 0 0 0 0 1 0 0 0 0 0 1 0 0 0 0 1 0 0 0 0 0 1 0 0 0 0 1 0 0 0 0 0 1 0 0 0 0 0 1 0 0 0 1 0 0 0 0 0 0 1 1 0 1 1 0 0 0 0 0 0 0 0 1 0 0 0 0 0"></feConvolveMatrix><feOffset dx="0" dy="4" in="shadow" result="offset"></feOffset><feGaussianBlur in="offset" stdDeviation="0.2" result="blur"></feGaussianBlur><feComposite operator="in" in="flood-extrude" in2="blur" result="extrude"></feComposite><feMorphology operator="erode" in="SourceAlpha" radius="1" result="erode2"></feMorphology><feConvolveMatrix in="erode2" result="out" order="4,4" divisor="1" kernelMatrix="0 1 1 0 1 0 0 1 1 0 0 1 0 1 1 0 "></feConvolveMatrix><feComposite operator="in" in="flood-surface" in2="out" result="text"></feComposite><feMerge><feMergeNode in="extrude"></feMergeNode><feMergeNode in="text"></feMergeNode></feMerge></filter></defs><g filter="url(#editing-raise)"><g transform="translate(87.13936161994934, 104.54937362670898)"><path d="M5.70-8.13L5.70-8.13Q6.08-5.25 8.58-3.81L8.58-3.81L8.58-3.81Q11.07-2.37 14.14-2.37L14.14-2.37L14.14-2.37Q17.02-2.37 19.39-3.68L19.39-3.68L19.39-3.68Q21.76-4.99 21.76-7.94L21.76-7.94L21.76-7.94Q21.76-9.86 20.64-11.10L20.64-11.10L20.64-11.10Q19.52-12.35 17.86-13.12L17.86-13.12L17.86-13.12Q16.19-13.89 13.38-14.78L13.38-14.78L13.38-14.78Q10.24-15.81 8.26-16.70L8.26-16.70L8.26-16.70Q6.27-17.60 4.80-19.23L4.80-19.23L4.80-19.23Q3.33-20.86 3.07-23.36L3.07-23.36L3.01-24.13L3.01-24.13Q3.01-26.24 4.19-28.26L4.19-28.26L4.19-28.26Q5.38-30.27 7.84-31.55L7.84-31.55L7.84-31.55Q10.30-32.83 14.02-32.83L14.02-32.83L14.02-32.83Q16.06-32.83 17.63-32.42L17.63-32.42L17.63-32.42Q19.20-32 20.10-31.55L20.10-31.55L20.10-31.55Q20.99-31.10 21.18-30.98L21.18-30.98L19.97-28.03L19.97-28.03Q19.78-28.16 19.04-28.54L19.04-28.54L19.04-28.54Q18.30-28.93 16.96-29.31L16.96-29.31L16.96-29.31Q15.62-29.70 14.02-29.70L14.02-29.70L14.02-29.70Q10.94-29.70 8.77-28.26L8.77-28.26L8.77-28.26Q6.59-26.82 6.59-24.26L6.59-24.26L6.59-24.26Q6.59-21.82 8.58-20.54L8.58-20.54L8.58-20.54Q10.56-19.26 14.66-17.98L14.66-17.98L14.66-17.98Q18.11-16.83 20.22-15.81L20.22-15.81L20.22-15.81Q22.34-14.78 23.84-12.90L23.84-12.90L23.84-12.90Q25.34-11.01 25.34-8L25.34-8L25.34-8Q25.34-4.16 22.50-1.60L22.50-1.60L22.50-1.60Q19.65 0.96 14.14 0.96L14.14 0.96L14.14 0.96Q10.50 0.96 7.84-0.29L7.84-0.29L7.84-0.29Q5.18-1.54 3.81-3.58L3.81-3.58L3.81-3.58Q2.43-5.63 2.30-8.13L2.30-8.13L5.70-8.13ZM37.18 0.83L37.18 0.83Q33.60-0.19 32-2.43L32-2.43L32-2.43Q30.40-4.67 30.40-8.45L30.40-8.45L30.40-44.80L33.98-44.80L33.98-32.06L41.66-32.06L40.13-28.67L33.98-28.67L33.98-8.45L33.98-8.45Q33.98-3.33 38.21-1.92L38.21-1.92L37.18 0.83ZM66.82-2.24L66.82-2.24Q64.51-0.77 61.57 0L61.57 0L61.57 0Q58.62 0.77 55.68 0.77L55.68 0.77L55.68 0.77Q50.94 0.77 48.16-1.57L48.16-1.57L48.16-1.57Q45.38-3.90 45.38-8.58L45.38-8.58L45.38-21.70L45.38-21.70Q45.38-26.88 48.61-29.76L48.61-29.76L48.61-29.76Q51.84-32.64 57.15-32.64L57.15-32.64L57.15-32.64Q62.46-32.64 65.44-29.79L65.44-29.79L65.44-29.79Q68.42-26.94 68.42-21.89L68.42-21.89L68.42-13.57L48.96-12.48L48.96-8.58L48.96-8.58Q48.96-5.50 50.94-3.97L50.94-3.97L50.94-3.97Q52.93-2.43 56.13-2.43L56.13-2.43L56.13-2.43Q60.61-2.43 65.41-4.99L65.41-4.99L66.82-2.24ZM64.83-22.34L64.83-22.34Q64.83-26.30 62.34-27.94L62.34-27.94L62.34-27.94Q59.84-29.57 57.09-29.57L57.09-29.57L57.09-29.57Q53.57-29.57 51.26-27.65L51.26-27.65L51.26-27.65Q48.96-25.73 48.96-21.63L48.96-21.63L48.96-16L64.83-16.77L64.83-22.34ZM75.90 0L75.90-44.80L79.49-44.80L79.49 0L75.90 0ZM89.60 0L89.60-44.80L93.18-44.80L93.18 0L89.60 0ZM125.31 0L125.31 0Q118.40 0.70 115.33 0.70L115.33 0.70L115.33 0.70Q108.61 0.70 104.64-1.79L104.64-1.79L104.64-1.79Q100.67-4.29 100.67-10.82L100.67-10.82L100.67-16.13L100.67-16.13Q100.67-22.46 105.09-24.64L105.09-24.64L105.09-24.64Q107.20-25.73 110.46-25.73L110.46-25.73L110.46-25.73Q113.47-25.73 116.54-24.74L116.54-24.74L116.54-24.74Q119.62-23.74 121.73-22.14L121.73-22.14L121.73-22.14Q121.73-25.66 119.68-27.74L119.68-27.74L119.68-27.74Q117.63-29.82 111.81-29.82L111.81-29.82L112.00-32.58L112.00-32.58Q118.14-32.58 121.06-30.62L121.06-30.62L121.06-30.62Q123.97-28.67 124.64-25.98L124.64-25.98L124.64-25.98Q125.31-23.30 125.31-19.07L125.31-19.07L125.31 0ZM121.73-19.39L121.73-19.39Q119.10-20.61 116.13-21.50L116.13-21.50L116.13-21.50Q113.15-22.40 110.66-22.40L110.66-22.40L110.66-22.40Q104.19-22.40 104.19-15.94L104.19-15.94L104.19-10.37L104.19-10.37Q104.19-6.21 107.07-4.32L107.07-4.32L107.07-4.32Q109.95-2.43 115.26-2.43L115.26-2.43L115.26-2.43Q118.02-2.43 121.73-2.94L121.73-2.94L121.73-19.39ZM131.52 0L131.52-32.06L135.10-32.06L134.91-29.82L134.91-29.82Q137.92-32.64 142.78-32.64L142.78-32.64L142.78-32.64Q144.51-32.64 147.52-32.06L147.52-32.06L146.56-28.80L146.56-28.80Q144.51-29.44 142.27-29.44L142.27-29.44L142.27-29.44Q139.33-29.44 137.22-28.35L137.22-28.35L137.22-28.35Q135.10-27.26 135.10-25.09L135.10-25.09L135.10 0L131.52 0ZM171.71 0L171.71-35.14L171.71-35.14Q171.71-40.45 174.40-42.94L174.40-42.94L174.40-42.94Q177.09-45.44 181.06-45.44L181.06-45.44L181.06-45.44Q182.27-45.44 183.42-45.25L183.42-45.25L182.85-42.11L182.85-42.11Q181.70-42.24 181.18-42.24L181.18-42.24L181.18-42.24Q175.30-42.24 175.30-35.14L175.30-35.14L175.30-32.06L182.59-32.06L181.06-28.67L175.30-28.67L175.30 0L171.71 0ZM192.70-41.15L192.70-41.15Q191.87-41.15 191.20-41.82L191.20-41.82L191.20-41.82Q190.53-42.50 190.53-43.33L190.53-43.33L190.53-43.33Q190.53-44.16 191.17-44.80L191.17-44.80L191.17-44.80Q191.81-45.44 192.70-45.44L192.70-45.44L192.70-45.44Q193.60-45.44 194.21-44.83L194.21-44.83L194.21-44.83Q194.82-44.22 194.82-43.33L194.82-43.33L194.82-43.33Q194.82-42.43 194.18-41.79L194.18-41.79L194.18-41.79Q193.54-41.15 192.70-41.15L192.70-41.15ZM190.85 0L190.85-32.06L194.43-32.06L194.43 0L190.85 0ZM218.62 10.69L218.62 10.69Q222.85 9.09 222.85 4.03L222.85 4.03L222.85-3.90L222.85-3.90Q220.16 0.77 214.21 0.77L214.21 0.77L214.21 0.77Q208.58 0.77 205.44-2.30L205.44-2.30L205.44-2.30Q202.30-5.38 202.30-11.26L202.30-11.26L202.30-20.80L202.30-20.80Q202.30-26.43 205.60-29.54L205.60-29.54L205.60-29.54Q208.90-32.64 214.46-32.64L214.46-32.64L214.46-32.64Q220.42-32.64 223.10-28.35L223.10-28.35L222.85-32.06L226.43-32.06L226.43 4.10L226.43 4.10Q226.43 7.94 224.83 10.11L224.83 10.11L224.83 10.11Q223.23 12.29 219.58 13.44L219.58 13.44L218.62 10.69ZM222.85-21.50L222.85-21.50Q222.85-25.47 220.29-27.42L220.29-27.42L220.29-27.42Q217.73-29.38 214.21-29.38L214.21-29.38L214.21-29.38Q210.82-29.38 208.35-27.30L208.35-27.30L208.35-27.30Q205.89-25.22 205.89-20.48L205.89-20.48L205.89-10.69L205.89-10.69Q205.89-6.66 208.16-4.61L208.16-4.61L208.16-4.61Q210.43-2.56 214.21-2.56L214.21-2.56L214.21-2.56Q217.79-2.56 220.32-4.77L220.32-4.77L220.32-4.77Q222.85-6.98 222.85-11.07L222.85-11.07L222.85-21.50ZM252.80 0L252.80-21.95L252.80-21.95Q252.80-25.86 250.53-27.62L250.53-27.62L250.53-27.62Q248.26-29.38 244.67-29.38L244.67-29.38L244.67-29.38Q242.50-29.38 240.26-28.77L240.26-28.77L240.26-28.77Q238.02-28.16 236.29-27.20L236.29-27.20L236.29 0L232.70 0L232.70-44.80L236.29-44.80L236.29-30.34L236.29-30.34Q237.89-31.42 240.13-32.03L240.13-32.03L240.13-32.03Q242.37-32.64 244.80-32.64L244.80-32.64L244.80-32.64Q248.13-32.64 250.88-31.42L250.88-31.42L250.88-31.42Q253.44-30.27 254.88-27.97L254.88-27.97L254.88-27.97Q256.32-25.66 256.32-22.14L256.32-22.14L256.32 0L252.80 0ZM269.76 0.83L269.76 0.83Q266.18-0.19 264.58-2.43L264.58-2.43L264.58-2.43Q262.98-4.67 262.98-8.45L262.98-8.45L262.98-44.80L266.56-44.80L266.56-32.06L274.24-32.06L272.70-28.67L266.56-28.67L266.56-8.45L266.56-8.45Q266.56-3.33 270.78-1.92L270.78-1.92L269.76 0.83ZM299.39-2.24L299.39-2.24Q297.09-0.77 294.14 0L294.14 0L294.14 0Q291.20 0.77 288.26 0.77L288.26 0.77L288.26 0.77Q283.52 0.77 280.74-1.57L280.74-1.57L280.74-1.57Q277.95-3.90 277.95-8.58L277.95-8.58L277.95-21.70L277.95-21.70Q277.95-26.88 281.18-29.76L281.18-29.76L281.18-29.76Q284.42-32.64 289.73-32.64L289.73-32.64L289.73-32.64Q295.04-32.64 298.02-29.79L298.02-29.79L298.02-29.79Q300.99-26.94 300.99-21.89L300.99-21.89L300.99-13.57L281.54-12.48L281.54-8.58L281.54-8.58Q281.54-5.50 283.52-3.97L283.52-3.97L283.52-3.97Q285.50-2.43 288.70-2.43L288.70-2.43L288.70-2.43Q293.18-2.43 297.98-4.99L297.98-4.99L299.39-2.24ZM297.41-22.34L297.41-22.34Q297.41-26.30 294.91-27.94L294.91-27.94L294.91-27.94Q292.42-29.57 289.66-29.57L289.66-29.57L289.66-29.57Q286.14-29.57 283.84-27.65L283.84-27.65L283.84-27.65Q281.54-25.73 281.54-21.63L281.54-21.63L281.54-16L297.41-16.77L297.41-22.34ZM307.39 0L307.39-32.06L310.98-32.06L310.78-29.82L310.78-29.82Q313.79-32.64 318.66-32.64L318.66-32.64L318.66-32.64Q320.38-32.64 323.39-32.06L323.39-32.06L322.43-28.80L322.43-28.80Q320.38-29.44 318.14-29.44L318.14-29.44L318.14-29.44Q315.20-29.44 313.09-28.35L313.09-28.35L313.09-28.35Q310.98-27.26 310.98-25.09L310.98-25.09L310.98 0L307.39 0Z"></path></g></g><style>text {
  font-size: 64px;
  font-family: Arial Black;
  dominant-baseline: central;
  text-anchor: middle;
}</style></svg>