<svg version="1.0" xmlns="http://www.w3.org/2000/svg" xmlns:xlink="http://www.w3.org/1999/xlink"
	 viewBox="0 0 100 100" enable-background="new 0 0 100 100" xml:space="preserve">
	
<svg xmlns="http://www.w3.org/2000/svg" xmlns:xlink="http://www.w3.org/1999/xlink" version="1.1" width="100" height="100" viewBox="0 0 2000 2000" shape-rendering="crispEdges" x="0" y="0"><defs><rect id="r0" width="57" height="57" fill="#000000"/></defs><rect x="0" y="0" width="2000" height="2000" fill="#ffffff"/><use x="629" y="173" xlink:href="#r0"/><use x="800" y="173" xlink:href="#r0"/><use x="857" y="173" xlink:href="#r0"/><use x="914" y="173" xlink:href="#r0"/><use x="1028" y="173" xlink:href="#r0"/><use x="1199" y="173" xlink:href="#r0"/><use x="1256" y="173" xlink:href="#r0"/><use x="629" y="230" xlink:href="#r0"/><use x="1085" y="230" xlink:href="#r0"/><use x="1142" y="230" xlink:href="#r0"/><use x="1256" y="230" xlink:href="#r0"/><use x="629" y="287" xlink:href="#r0"/><use x="686" y="287" xlink:href="#r0"/><use x="743" y="287" xlink:href="#r0"/><use x="857" y="287" xlink:href="#r0"/><use x="971" y="287" xlink:href="#r0"/><use x="1142" y="287" xlink:href="#r0"/><use x="1256" y="287" xlink:href="#r0"/><use x="1313" y="287" xlink:href="#r0"/><use x="629" y="344" xlink:href="#r0"/><use x="686" y="344" xlink:href="#r0"/><use x="743" y="344" xlink:href="#r0"/><use x="800" y="344" xlink:href="#r0"/><use x="857" y="344" xlink:href="#r0"/><use x="971" y="344" xlink:href="#r0"/><use x="1028" y="344" xlink:href="#r0"/><use x="1142" y="344" xlink:href="#r0"/><use x="1199" y="344" xlink:href="#r0"/><use x="686" y="401" xlink:href="#r0"/><use x="914" y="401" xlink:href="#r0"/><use x="971" y="401" xlink:href="#r0"/><use x="1028" y="401" xlink:href="#r0"/><use x="1085" y="401" xlink:href="#r0"/><use x="1256" y="401" xlink:href="#r0"/><use x="1313" y="401" xlink:href="#r0"/><use x="629" y="458" xlink:href="#r0"/><use x="686" y="458" xlink:href="#r0"/><use x="743" y="458" xlink:href="#r0"/><use x="857" y="458" xlink:href="#r0"/><use x="1028" y="458" xlink:href="#r0"/><use x="1142" y="458" xlink:href="#r0"/><use x="1313" y="458" xlink:href="#r0"/><use x="629" y="515" xlink:href="#r0"/><use x="743" y="515" xlink:href="#r0"/><use x="857" y="515" xlink:href="#r0"/><use x="971" y="515" xlink:href="#r0"/><use x="1085" y="515" xlink:href="#r0"/><use x="1199" y="515" xlink:href="#r0"/><use x="1313" y="515" xlink:href="#r0"/><use x="743" y="572" xlink:href="#r0"/><use x="857" y="572" xlink:href="#r0"/><use x="1085" y="572" xlink:href="#r0"/><use x="1142" y="572" xlink:href="#r0"/><use x="1199" y="572" xlink:href="#r0"/><use x="1256" y="572" xlink:href="#r0"/><use x="1313" y="572" xlink:href="#r0"/><use x="173" y="629" xlink:href="#r0"/><use x="230" y="629" xlink:href="#r0"/><use x="401" y="629" xlink:href="#r0"/><use x="458" y="629" xlink:href="#r0"/><use x="515" y="629" xlink:href="#r0"/><use x="743" y="629" xlink:href="#r0"/><use x="857" y="629" xlink:href="#r0"/><use x="914" y="629" xlink:href="#r0"/><use x="1085" y="629" xlink:href="#r0"/><use x="1142" y="629" xlink:href="#r0"/><use x="1199" y="629" xlink:href="#r0"/><use x="1256" y="629" xlink:href="#r0"/><use x="1484" y="629" xlink:href="#r0"/><use x="1598" y="629" xlink:href="#r0"/><use x="1655" y="629" xlink:href="#r0"/><use x="1712" y="629" xlink:href="#r0"/><use x="1769" y="629" xlink:href="#r0"/><use x="287" y="686" xlink:href="#r0"/><use x="344" y="686" xlink:href="#r0"/><use x="401" y="686" xlink:href="#r0"/><use x="458" y="686" xlink:href="#r0"/><use x="572" y="686" xlink:href="#r0"/><use x="914" y="686" xlink:href="#r0"/><use x="1028" y="686" xlink:href="#r0"/><use x="1085" y="686" xlink:href="#r0"/><use x="1199" y="686" xlink:href="#r0"/><use x="1370" y="686" xlink:href="#r0"/><use x="1484" y="686" xlink:href="#r0"/><use x="1541" y="686" xlink:href="#r0"/><use x="1655" y="686" xlink:href="#r0"/><use x="173" y="743" xlink:href="#r0"/><use x="287" y="743" xlink:href="#r0"/><use x="344" y="743" xlink:href="#r0"/><use x="401" y="743" xlink:href="#r0"/><use x="458" y="743" xlink:href="#r0"/><use x="515" y="743" xlink:href="#r0"/><use x="629" y="743" xlink:href="#r0"/><use x="686" y="743" xlink:href="#r0"/><use x="743" y="743" xlink:href="#r0"/><use x="800" y="743" xlink:href="#r0"/><use x="857" y="743" xlink:href="#r0"/><use x="914" y="743" xlink:href="#r0"/><use x="971" y="743" xlink:href="#r0"/><use x="1085" y="743" xlink:href="#r0"/><use x="1427" y="743" xlink:href="#r0"/><use x="1484" y="743" xlink:href="#r0"/><use x="1541" y="743" xlink:href="#r0"/><use x="1598" y="743" xlink:href="#r0"/><use x="1655" y="743" xlink:href="#r0"/><use x="1769" y="743" xlink:href="#r0"/><use x="173" y="800" xlink:href="#r0"/><use x="287" y="800" xlink:href="#r0"/><use x="458" y="800" xlink:href="#r0"/><use x="572" y="800" xlink:href="#r0"/><use x="686" y="800" xlink:href="#r0"/><use x="857" y="800" xlink:href="#r0"/><use x="914" y="800" xlink:href="#r0"/><use x="1256" y="800" xlink:href="#r0"/><use x="1313" y="800" xlink:href="#r0"/><use x="1370" y="800" xlink:href="#r0"/><use x="1598" y="800" xlink:href="#r0"/><use x="173" y="857" xlink:href="#r0"/><use x="287" y="857" xlink:href="#r0"/><use x="401" y="857" xlink:href="#r0"/><use x="458" y="857" xlink:href="#r0"/><use x="515" y="857" xlink:href="#r0"/><use x="572" y="857" xlink:href="#r0"/><use x="629" y="857" xlink:href="#r0"/><use x="857" y="857" xlink:href="#r0"/><use x="914" y="857" xlink:href="#r0"/><use x="1085" y="857" xlink:href="#r0"/><use x="1142" y="857" xlink:href="#r0"/><use x="1256" y="857" xlink:href="#r0"/><use x="1370" y="857" xlink:href="#r0"/><use x="1427" y="857" xlink:href="#r0"/><use x="1541" y="857" xlink:href="#r0"/><use x="1598" y="857" xlink:href="#r0"/><use x="1655" y="857" xlink:href="#r0"/><use x="1712" y="857" xlink:href="#r0"/><use x="401" y="914" xlink:href="#r0"/><use x="686" y="914" xlink:href="#r0"/><use x="743" y="914" xlink:href="#r0"/><use x="857" y="914" xlink:href="#r0"/><use x="914" y="914" xlink:href="#r0"/><use x="971" y="914" xlink:href="#r0"/><use x="1199" y="914" xlink:href="#r0"/><use x="1256" y="914" xlink:href="#r0"/><use x="1313" y="914" xlink:href="#r0"/><use x="1484" y="914" xlink:href="#r0"/><use x="1541" y="914" xlink:href="#r0"/><use x="1655" y="914" xlink:href="#r0"/><use x="173" y="971" xlink:href="#r0"/><use x="230" y="971" xlink:href="#r0"/><use x="287" y="971" xlink:href="#r0"/><use x="458" y="971" xlink:href="#r0"/><use x="515" y="971" xlink:href="#r0"/><use x="572" y="971" xlink:href="#r0"/><use x="914" y="971" xlink:href="#r0"/><use x="971" y="971" xlink:href="#r0"/><use x="1085" y="971" xlink:href="#r0"/><use x="1199" y="971" xlink:href="#r0"/><use x="1256" y="971" xlink:href="#r0"/><use x="1427" y="971" xlink:href="#r0"/><use x="1541" y="971" xlink:href="#r0"/><use x="1598" y="971" xlink:href="#r0"/><use x="1655" y="971" xlink:href="#r0"/><use x="1712" y="971" xlink:href="#r0"/><use x="230" y="1028" xlink:href="#r0"/><use x="287" y="1028" xlink:href="#r0"/><use x="344" y="1028" xlink:href="#r0"/><use x="401" y="1028" xlink:href="#r0"/><use x="458" y="1028" xlink:href="#r0"/><use x="629" y="1028" xlink:href="#r0"/><use x="743" y="1028" xlink:href="#r0"/><use x="857" y="1028" xlink:href="#r0"/><use x="914" y="1028" xlink:href="#r0"/><use x="1142" y="1028" xlink:href="#r0"/><use x="1256" y="1028" xlink:href="#r0"/><use x="1313" y="1028" xlink:href="#r0"/><use x="1370" y="1028" xlink:href="#r0"/><use x="1712" y="1028" xlink:href="#r0"/><use x="344" y="1085" xlink:href="#r0"/><use x="401" y="1085" xlink:href="#r0"/><use x="515" y="1085" xlink:href="#r0"/><use x="629" y="1085" xlink:href="#r0"/><use x="914" y="1085" xlink:href="#r0"/><use x="1142" y="1085" xlink:href="#r0"/><use x="1256" y="1085" xlink:href="#r0"/><use x="1313" y="1085" xlink:href="#r0"/><use x="1370" y="1085" xlink:href="#r0"/><use x="1427" y="1085" xlink:href="#r0"/><use x="1484" y="1085" xlink:href="#r0"/><use x="1598" y="1085" xlink:href="#r0"/><use x="1655" y="1085" xlink:href="#r0"/><use x="1712" y="1085" xlink:href="#r0"/><use x="173" y="1142" xlink:href="#r0"/><use x="230" y="1142" xlink:href="#r0"/><use x="287" y="1142" xlink:href="#r0"/><use x="344" y="1142" xlink:href="#r0"/><use x="458" y="1142" xlink:href="#r0"/><use x="572" y="1142" xlink:href="#r0"/><use x="629" y="1142" xlink:href="#r0"/><use x="686" y="1142" xlink:href="#r0"/><use x="800" y="1142" xlink:href="#r0"/><use x="914" y="1142" xlink:href="#r0"/><use x="971" y="1142" xlink:href="#r0"/><use x="1028" y="1142" xlink:href="#r0"/><use x="1085" y="1142" xlink:href="#r0"/><use x="1541" y="1142" xlink:href="#r0"/><use x="1655" y="1142" xlink:href="#r0"/><use x="1712" y="1142" xlink:href="#r0"/><use x="344" y="1199" xlink:href="#r0"/><use x="401" y="1199" xlink:href="#r0"/><use x="458" y="1199" xlink:href="#r0"/><use x="515" y="1199" xlink:href="#r0"/><use x="572" y="1199" xlink:href="#r0"/><use x="629" y="1199" xlink:href="#r0"/><use x="800" y="1199" xlink:href="#r0"/><use x="914" y="1199" xlink:href="#r0"/><use x="971" y="1199" xlink:href="#r0"/><use x="1085" y="1199" xlink:href="#r0"/><use x="1199" y="1199" xlink:href="#r0"/><use x="1427" y="1199" xlink:href="#r0"/><use x="1541" y="1199" xlink:href="#r0"/><use x="1598" y="1199" xlink:href="#r0"/><use x="1655" y="1199" xlink:href="#r0"/><use x="1712" y="1199" xlink:href="#r0"/><use x="1769" y="1199" xlink:href="#r0"/><use x="287" y="1256" xlink:href="#r0"/><use x="344" y="1256" xlink:href="#r0"/><use x="401" y="1256" xlink:href="#r0"/><use x="458" y="1256" xlink:href="#r0"/><use x="629" y="1256" xlink:href="#r0"/><use x="686" y="1256" xlink:href="#r0"/><use x="857" y="1256" xlink:href="#r0"/><use x="1085" y="1256" xlink:href="#r0"/><use x="1256" y="1256" xlink:href="#r0"/><use x="1313" y="1256" xlink:href="#r0"/><use x="1370" y="1256" xlink:href="#r0"/><use x="173" y="1313" xlink:href="#r0"/><use x="230" y="1313" xlink:href="#r0"/><use x="344" y="1313" xlink:href="#r0"/><use x="515" y="1313" xlink:href="#r0"/><use x="572" y="1313" xlink:href="#r0"/><use x="686" y="1313" xlink:href="#r0"/><use x="914" y="1313" xlink:href="#r0"/><use x="971" y="1313" xlink:href="#r0"/><use x="1199" y="1313" xlink:href="#r0"/><use x="1256" y="1313" xlink:href="#r0"/><use x="1313" y="1313" xlink:href="#r0"/><use x="1370" y="1313" xlink:href="#r0"/><use x="1427" y="1313" xlink:href="#r0"/><use x="1484" y="1313" xlink:href="#r0"/><use x="1541" y="1313" xlink:href="#r0"/><use x="629" y="1370" xlink:href="#r0"/><use x="857" y="1370" xlink:href="#r0"/><use x="914" y="1370" xlink:href="#r0"/><use x="1028" y="1370" xlink:href="#r0"/><use x="1313" y="1370" xlink:href="#r0"/><use x="1541" y="1370" xlink:href="#r0"/><use x="1598" y="1370" xlink:href="#r0"/><use x="1655" y="1370" xlink:href="#r0"/><use x="914" y="1427" xlink:href="#r0"/><use x="971" y="1427" xlink:href="#r0"/><use x="1028" y="1427" xlink:href="#r0"/><use x="1085" y="1427" xlink:href="#r0"/><use x="1199" y="1427" xlink:href="#r0"/><use x="1313" y="1427" xlink:href="#r0"/><use x="1427" y="1427" xlink:href="#r0"/><use x="1541" y="1427" xlink:href="#r0"/><use x="1598" y="1427" xlink:href="#r0"/><use x="1655" y="1427" xlink:href="#r0"/><use x="1769" y="1427" xlink:href="#r0"/><use x="629" y="1484" xlink:href="#r0"/><use x="686" y="1484" xlink:href="#r0"/><use x="857" y="1484" xlink:href="#r0"/><use x="971" y="1484" xlink:href="#r0"/><use x="1142" y="1484" xlink:href="#r0"/><use x="1199" y="1484" xlink:href="#r0"/><use x="1256" y="1484" xlink:href="#r0"/><use x="1313" y="1484" xlink:href="#r0"/><use x="1541" y="1484" xlink:href="#r0"/><use x="1655" y="1484" xlink:href="#r0"/><use x="1712" y="1484" xlink:href="#r0"/><use x="629" y="1541" xlink:href="#r0"/><use x="686" y="1541" xlink:href="#r0"/><use x="743" y="1541" xlink:href="#r0"/><use x="857" y="1541" xlink:href="#r0"/><use x="971" y="1541" xlink:href="#r0"/><use x="1085" y="1541" xlink:href="#r0"/><use x="1313" y="1541" xlink:href="#r0"/><use x="1370" y="1541" xlink:href="#r0"/><use x="1427" y="1541" xlink:href="#r0"/><use x="1484" y="1541" xlink:href="#r0"/><use x="1541" y="1541" xlink:href="#r0"/><use x="1598" y="1541" xlink:href="#r0"/><use x="1769" y="1541" xlink:href="#r0"/><use x="686" y="1598" xlink:href="#r0"/><use x="743" y="1598" xlink:href="#r0"/><use x="800" y="1598" xlink:href="#r0"/><use x="914" y="1598" xlink:href="#r0"/><use x="971" y="1598" xlink:href="#r0"/><use x="1085" y="1598" xlink:href="#r0"/><use x="1199" y="1598" xlink:href="#r0"/><use x="1256" y="1598" xlink:href="#r0"/><use x="1484" y="1598" xlink:href="#r0"/><use x="1598" y="1598" xlink:href="#r0"/><use x="1655" y="1598" xlink:href="#r0"/><use x="1712" y="1598" xlink:href="#r0"/><use x="743" y="1655" xlink:href="#r0"/><use x="800" y="1655" xlink:href="#r0"/><use x="914" y="1655" xlink:href="#r0"/><use x="1028" y="1655" xlink:href="#r0"/><use x="1199" y="1655" xlink:href="#r0"/><use x="1427" y="1655" xlink:href="#r0"/><use x="1541" y="1655" xlink:href="#r0"/><use x="1655" y="1655" xlink:href="#r0"/><use x="1712" y="1655" xlink:href="#r0"/><use x="1769" y="1655" xlink:href="#r0"/><use x="629" y="1712" xlink:href="#r0"/><use x="743" y="1712" xlink:href="#r0"/><use x="857" y="1712" xlink:href="#r0"/><use x="914" y="1712" xlink:href="#r0"/><use x="1313" y="1712" xlink:href="#r0"/><use x="1427" y="1712" xlink:href="#r0"/><use x="1484" y="1712" xlink:href="#r0"/><use x="1541" y="1712" xlink:href="#r0"/><use x="1598" y="1712" xlink:href="#r0"/><use x="1655" y="1712" xlink:href="#r0"/><use x="629" y="1769" xlink:href="#r0"/><use x="686" y="1769" xlink:href="#r0"/><use x="743" y="1769" xlink:href="#r0"/><use x="914" y="1769" xlink:href="#r0"/><use x="1199" y="1769" xlink:href="#r0"/><use x="1256" y="1769" xlink:href="#r0"/><use x="1313" y="1769" xlink:href="#r0"/><use x="1370" y="1769" xlink:href="#r0"/><use x="1427" y="1769" xlink:href="#r0"/><use x="1541" y="1769" xlink:href="#r0"/><use x="1712" y="1769" xlink:href="#r0"/><svg version="1.1" id="Ebene_1" x="173" y="173" width="399" height="399" viewBox="0 0 699.988 699.986" enable-background="new 0 0 699.988 699.986" xml:space="preserve" shape-rendering="auto">
<path fill="#000000" d="M600.99,0h-100h-99.997h-0.001h-99.997h-99.998h-99.998H1v99.998v99.998v99.998v99.999v99.997v99.998v99.998  h99.999h99.998h99.998h99.997h0.001h99.997h100h99.998v-99.998V499.99v-99.997v-99.999v-99.998V99.998V0H600.99z M600.99,199.996  v99.998v99.999v99.997v99.998h-100h-99.997h-0.001h-99.997h-99.998h-99.998V499.99v-99.997v-99.999v-99.998V99.998h99.998h99.998  h99.997h0.001h99.997h100V199.996z"/>
</svg>
<svg version="1.0" id="Ebene_1" x="173" y="173" width="399" height="399" viewBox="0 0 699.988 699.988" enable-background="new 0 0 699.988 699.988" xml:space="preserve" shape-rendering="auto">
<polygon fill="#000000" points="399.994,199.997 399.992,199.997 299.996,199.997 199.998,199.997 199.998,299.994 199.998,399.994   199.998,499.991 299.996,499.991 399.992,499.991 399.994,499.991 499.99,499.991 499.99,399.994 499.99,299.994 499.99,199.997 "/>
</svg>
<svg version="1.1" id="Ebene_1" x="1427" y="173" width="399" height="399" viewBox="0 0 699.988 699.986" enable-background="new 0 0 699.988 699.986" xml:space="preserve" shape-rendering="auto">
<path fill="#000000" d="M600.99,0h-100h-99.997h-0.001h-99.997h-99.998h-99.998H1v99.998v99.998v99.998v99.999v99.997v99.998v99.998  h99.999h99.998h99.998h99.997h0.001h99.997h100h99.998v-99.998V499.99v-99.997v-99.999v-99.998V99.998V0H600.99z M600.99,199.996  v99.998v99.999v99.997v99.998h-100h-99.997h-0.001h-99.997h-99.998h-99.998V499.99v-99.997v-99.999v-99.998V99.998h99.998h99.998  h99.997h0.001h99.997h100V199.996z"/>
</svg>
<svg version="1.0" id="Ebene_1" x="1427" y="173" width="399" height="399" viewBox="0 0 699.988 699.988" enable-background="new 0 0 699.988 699.988" xml:space="preserve" shape-rendering="auto">
<polygon fill="#000000" points="399.994,199.997 399.992,199.997 299.996,199.997 199.998,199.997 199.998,299.994 199.998,399.994   199.998,499.991 299.996,499.991 399.992,499.991 399.994,499.991 499.99,499.991 499.99,399.994 499.99,299.994 499.99,199.997 "/>
</svg>
<svg version="1.1" id="Ebene_1" x="173" y="1427" width="399" height="399" viewBox="0 0 699.988 699.986" enable-background="new 0 0 699.988 699.986" xml:space="preserve" shape-rendering="auto">
<path fill="#000000" d="M600.99,0h-100h-99.997h-0.001h-99.997h-99.998h-99.998H1v99.998v99.998v99.998v99.999v99.997v99.998v99.998  h99.999h99.998h99.998h99.997h0.001h99.997h100h99.998v-99.998V499.99v-99.997v-99.999v-99.998V99.998V0H600.99z M600.99,199.996  v99.998v99.999v99.997v99.998h-100h-99.997h-0.001h-99.997h-99.998h-99.998V499.99v-99.997v-99.999v-99.998V99.998h99.998h99.998  h99.997h0.001h99.997h100V199.996z"/>
</svg>
<svg version="1.0" id="Ebene_1" x="173" y="1427" width="399" height="399" viewBox="0 0 699.988 699.988" enable-background="new 0 0 699.988 699.988" xml:space="preserve" shape-rendering="auto">
<polygon fill="#000000" points="399.994,199.997 399.992,199.997 299.996,199.997 199.998,199.997 199.998,299.994 199.998,399.994   199.998,499.991 299.996,499.991 399.992,499.991 399.994,499.991 499.99,499.991 499.99,399.994 499.99,299.994 499.99,199.997 "/>
</svg>
</svg>

</svg>
